<mxfile host="app.diagrams.net" modified="2023-01-31T07:59:52.860Z" agent="5.0 (Windows NT 10.0; Win64; x64) AppleWebKit/537.36 (KHTML, like Gecko) Chrome/106.0.0.0 Safari/537.36 Edg/106.0.1370.47" etag="MnQ1Egb93LSniA748lFR" version="20.8.13" type="github">
  <diagram name="第 1 页" id="EgVWHo0-7wXaNzdoyHJw">
    <mxGraphModel dx="1050" dy="523" grid="1" gridSize="10" guides="1" tooltips="1" connect="1" arrows="1" fold="1" page="1" pageScale="1" pageWidth="827" pageHeight="1169" math="0" shadow="0">
      <root>
        <mxCell id="0" />
        <mxCell id="1" parent="0" />
        <mxCell id="r6kU3v_14poT0Qgxv8o_-1" value="" style="ellipse;whiteSpace=wrap;html=1;" vertex="1" parent="1">
          <mxGeometry x="200" y="250" width="120" height="80" as="geometry" />
        </mxCell>
        <mxCell id="r6kU3v_14poT0Qgxv8o_-2" value="" style="ellipse;whiteSpace=wrap;html=1;" vertex="1" parent="1">
          <mxGeometry x="540" y="290" width="120" height="80" as="geometry" />
        </mxCell>
      </root>
    </mxGraphModel>
  </diagram>
</mxfile>
